<svg width="17" height="14" viewBox="0 0 17 14" fill="none" xmlns="http://www.w3.org/2000/svg">
<path d="M5.69994 13.0225C11.7362 13.0225 15.0387 8.02036 15.0387 3.68379C15.0387 3.54317 15.0356 3.39942 15.0293 3.25879C15.6718 2.79419 16.2262 2.21872 16.6665 1.55942C16.0682 1.82562 15.4329 1.99947 14.7824 2.07504C15.4674 1.66449 15.9802 1.01953 16.2259 0.25973C15.5815 0.641591 14.8769 0.91096 14.1421 1.05629C13.6471 0.53026 12.9925 0.181963 12.2796 0.0652532C11.5668 -0.0514571 10.8353 0.0699194 10.1983 0.410617C9.56137 0.751314 9.05437 1.29236 8.75574 1.95009C8.4571 2.60783 8.38346 3.34563 8.54619 4.04942C7.2415 3.98395 5.96513 3.64502 4.79983 3.05462C3.63452 2.46421 2.6063 1.63551 1.78182 0.62223C1.36277 1.34471 1.23454 2.19965 1.42319 3.01328C1.61184 3.82691 2.10321 4.53818 2.79744 5.00254C2.27626 4.986 1.76649 4.84567 1.31025 4.59317V4.63379C1.30979 5.39199 1.5719 6.12694 2.05204 6.71373C2.53219 7.30052 3.20072 7.70293 3.944 7.85254C3.46121 7.98464 2.95449 8.00388 2.46307 7.90879C2.67281 8.56084 3.08089 9.13115 3.63035 9.54011C4.17982 9.94907 4.84325 10.1763 5.52807 10.19C4.36545 11.1033 2.92929 11.5986 1.45088 11.5963C1.1887 11.5959 0.92677 11.5798 0.666504 11.5482C2.16841 12.5117 3.91552 13.0235 5.69994 13.0225Z" fill="#232536"/>
</svg>
