<svg width="64" height="19" viewBox="0 0 64 19" fill="none" xmlns="http://www.w3.org/2000/svg">
<path d="M0.113636 18V0.545454H2.22727V16.125H10.3409V18H0.113636ZM27.6612 9.27273C27.6612 11.1136 27.3288 12.7045 26.6641 14.0455C25.9993 15.3864 25.0874 16.4205 23.9283 17.1477C22.7692 17.875 21.4453 18.2386 19.9567 18.2386C18.468 18.2386 17.1442 17.875 15.9851 17.1477C14.826 16.4205 13.9141 15.3864 13.2493 14.0455C12.5845 12.7045 12.2521 11.1136 12.2521 9.27273C12.2521 7.43182 12.5845 5.84091 13.2493 4.5C13.9141 3.15909 14.826 2.125 15.9851 1.39773C17.1442 0.670454 18.468 0.306818 19.9567 0.306818C21.4453 0.306818 22.7692 0.670454 23.9283 1.39773C25.0874 2.125 25.9993 3.15909 26.6641 4.5C27.3288 5.84091 27.6612 7.43182 27.6612 9.27273ZM25.6158 9.27273C25.6158 7.76136 25.3629 6.4858 24.8572 5.44602C24.3572 4.40625 23.6783 3.61932 22.8203 3.08523C21.968 2.55114 21.0135 2.28409 19.9567 2.28409C18.8999 2.28409 17.9425 2.55114 17.0845 3.08523C16.2322 3.61932 15.5533 4.40625 15.0476 5.44602C14.5476 6.4858 14.2976 7.76136 14.2976 9.27273C14.2976 10.7841 14.5476 12.0597 15.0476 13.0994C15.5533 14.1392 16.2322 14.9261 17.0845 15.4602C17.9425 15.9943 18.8999 16.2614 19.9567 16.2614C21.0135 16.2614 21.968 15.9943 22.8203 15.4602C23.6783 14.9261 24.3572 14.1392 24.8572 13.0994C25.3629 12.0597 25.6158 10.7841 25.6158 9.27273ZM43.147 6C42.9595 5.42614 42.7124 4.91193 42.4055 4.45739C42.1044 3.99716 41.7436 3.60511 41.3232 3.28125C40.9084 2.95739 40.4368 2.71023 39.9084 2.53977C39.38 2.36932 38.8004 2.28409 38.1697 2.28409C37.1357 2.28409 36.1953 2.55114 35.3487 3.08523C34.5021 3.61932 33.8288 4.40625 33.3288 5.44602C32.8288 6.4858 32.5788 7.76136 32.5788 9.27273C32.5788 10.7841 32.8317 12.0597 33.3374 13.0994C33.843 14.1392 34.5277 14.9261 35.3913 15.4602C36.255 15.9943 37.2266 16.2614 38.3061 16.2614C39.3061 16.2614 40.1868 16.0483 40.9482 15.6222C41.7152 15.1903 42.3118 14.5824 42.7379 13.7983C43.1697 13.0085 43.3857 12.0795 43.3857 11.0114L44.0334 11.1477H38.7834V9.27273H45.4311V11.1477C45.4311 12.5852 45.1243 13.8352 44.5107 14.8977C43.9027 15.9602 43.0618 16.7841 41.9879 17.3693C40.9197 17.9489 39.6925 18.2386 38.3061 18.2386C36.7607 18.2386 35.4027 17.875 34.2322 17.1477C33.0675 16.4205 32.1584 15.3864 31.505 14.0455C30.8572 12.7045 30.5334 11.1136 30.5334 9.27273C30.5334 7.89205 30.718 6.65057 31.0874 5.54829C31.4624 4.44034 31.9908 3.49716 32.6726 2.71875C33.3544 1.94034 34.1612 1.34375 35.093 0.928977C36.0249 0.514204 37.0504 0.306818 38.1697 0.306818C39.0902 0.306818 39.9482 0.446022 40.7436 0.724431C41.5447 0.997158 42.2578 1.38636 42.8828 1.89204C43.5135 2.39204 44.0391 2.99148 44.4595 3.69034C44.88 4.38352 45.1697 5.15341 45.3288 6H43.147ZM63.7784 9.27273C63.7784 11.1136 63.446 12.7045 62.7812 14.0455C62.1165 15.3864 61.2045 16.4205 60.0455 17.1477C58.8864 17.875 57.5625 18.2386 56.0739 18.2386C54.5852 18.2386 53.2614 17.875 52.1023 17.1477C50.9432 16.4205 50.0313 15.3864 49.3665 14.0455C48.7017 12.7045 48.3693 11.1136 48.3693 9.27273C48.3693 7.43182 48.7017 5.84091 49.3665 4.5C50.0313 3.15909 50.9432 2.125 52.1023 1.39773C53.2614 0.670454 54.5852 0.306818 56.0739 0.306818C57.5625 0.306818 58.8864 0.670454 60.0455 1.39773C61.2045 2.125 62.1165 3.15909 62.7812 4.5C63.446 5.84091 63.7784 7.43182 63.7784 9.27273ZM61.733 9.27273C61.733 7.76136 61.4801 6.4858 60.9744 5.44602C60.4744 4.40625 59.7955 3.61932 58.9375 3.08523C58.0852 2.55114 57.1307 2.28409 56.0739 2.28409C55.017 2.28409 54.0597 2.55114 53.2017 3.08523C52.3494 3.61932 51.6705 4.40625 51.1648 5.44602C50.6648 6.4858 50.4148 7.76136 50.4148 9.27273C50.4148 10.7841 50.6648 12.0597 51.1648 13.0994C51.6705 14.1392 52.3494 14.9261 53.2017 15.4602C54.0597 15.9943 55.017 16.2614 56.0739 16.2614C57.1307 16.2614 58.0852 15.9943 58.9375 15.4602C59.7955 14.9261 60.4744 14.1392 60.9744 13.0994C61.4801 12.0597 61.733 10.7841 61.733 9.27273Z" fill="#232536"/>
</svg>
